<svg width="180" height="180" viewBox="0 0 180 180" fill="none" xmlns="http://www.w3.org/2000/svg">
  <defs>
    <linearGradient id="bgGrad" x1="0" y1="0" x2="180" y2="180" gradientUnits="userSpaceOnUse">
      <stop offset="0%" stop-color="#141824"/>
      <stop offset="100%" stop-color="#0a0d14"/>
    </linearGradient>
    <linearGradient id="borderGrad" x1="0" y1="0" x2="180" y2="180" gradientUnits="userSpaceOnUse">
      <stop offset="0%" stop-color="#8276ed"/>
      <stop offset="100%" stop-color="#3b3768"/>
    </linearGradient>
    <linearGradient id="brandGrad" x1="40" y1="40" x2="140" y2="140" gradientUnits="userSpaceOnUse">
      <stop offset="0%" stop-color="#b8a8ff"/>
      <stop offset="50%" stop-color="#8276ed"/>
      <stop offset="100%" stop-color="#45d19a"/>
    </linearGradient>
    <filter id="glow" x="-20%" y="-20%" width="140%" height="140%">
      <feDropShadow dx="0" dy="0" stdDeviation="6" flood-color="#8276ed" flood-opacity="0.45"/>
    </filter>
  </defs>
  <rect width="180" height="180" rx="42" fill="url(#bgGrad)"/>
  <rect x="2" y="2" width="176" height="176" rx="40" stroke="url(#borderGrad)" stroke-width="3" stroke-opacity="0.8"/>
  <circle cx="90" cy="90" r="58" stroke="#8276ed" stroke-width="1.5" stroke-opacity="0.25" stroke-dasharray="4 4"/>
  <path d="M125 65C125 51.1929 113.807 40 100 40H74C60.1929 40 49 51.1929 49 65C49 76.5 56.5 86.2 67 89.2L113 90.8C123.5 93.8 131 103.5 131 115C131 128.807 119.807 140 106 140H80C66.1929 140 55 128.807 55 115" stroke="url(#brandGrad)" stroke-width="14" stroke-linecap="round" stroke-linejoin="round" filter="url(#glow)"/>
  <circle cx="126" cy="54" r="7" fill="#45d19a"/>
  <circle cx="126" cy="54" r="11" stroke="#45d19a" stroke-width="2" stroke-opacity="0.5"/>
</svg>
